<svg aria-hidden="true" style="position: absolute; width: 0; height: 0; overflow: hidden;" version="1.1" xmlns="http://www.w3.org/2000/svg" xmlns:xlink="http://www.w3.org/1999/xlink">
<defs>
<symbol id="icon-arrow-up2" viewBox="0 0 32 32">
<path d="M27.414 12.586l-10-10c-0.781-0.781-2.047-0.781-2.828 0l-10 10c-0.781 0.781-0.781 2.047 0 2.828s2.047 0.781 2.828 0l6.586-6.586v19.172c0 1.105 0.895 2 2 2s2-0.895 2-2v-19.172l6.586 6.586c0.39 0.39 0.902 0.586 1.414 0.586s1.024-0.195 1.414-0.586c0.781-0.781 0.781-2.047 0-2.828z"></path>
</symbol>
<symbol id="icon-arrow-down2" viewBox="0 0 32 32">
<path d="M27.414 19.414l-10 10c-0.781 0.781-2.047 0.781-2.828 0l-10-10c-0.781-0.781-0.781-2.047 0-2.828s2.047-0.781 2.828 0l6.586 6.586v-19.172c0-1.105 0.895-2 2-2s2 0.895 2 2v19.172l6.586-6.586c0.39-0.39 0.902-0.586 1.414-0.586s1.024 0.195 1.414 0.586c0.781 0.781 0.781 2.047 0 2.828z"></path>
</symbol>
<symbol id="icon-sort-alpha-asc" viewBox="0 0 32 32">
<path d="M10 24v-24h-4v24h-5l7 7 7-7h-5z"></path>
<path d="M29 32h-8c-0.369 0-0.708-0.203-0.882-0.528s-0.155-0.72 0.050-1.027l6.963-10.445h-6.131c-0.552 0-1-0.448-1-1s0.448-1 1-1h8c0.369 0 0.708 0.203 0.882 0.528s0.155 0.72-0.050 1.027l-6.963 10.445h6.131c0.552 0 1 0.448 1 1s-0.448 1-1 1z"></path>
<path d="M31.894 12.553l-6-12c-0.169-0.339-0.516-0.553-0.894-0.553s-0.725 0.214-0.895 0.553l-6 12c-0.247 0.494-0.047 1.095 0.447 1.342 0.144 0.072 0.296 0.106 0.447 0.106 0.367 0 0.72-0.203 0.895-0.553l1.724-3.447h6.764l1.724 3.447c0.247 0.494 0.848 0.694 1.342 0.447s0.694-0.848 0.447-1.342zM22.618 8l2.382-4.764 2.382 4.764h-4.764z"></path>
</symbol>
<symbol id="icon-sort-alpha-desc" viewBox="0 0 32 32">
<path d="M10 24v-24h-4v24h-5l7 7 7-7h-5z"></path>
<path d="M29 14h-8c-0.369 0-0.708-0.203-0.882-0.528s-0.155-0.72 0.050-1.027l6.963-10.445h-6.131c-0.552 0-1-0.448-1-1s0.448-1 1-1h8c0.369 0 0.708 0.203 0.882 0.528s0.155 0.72-0.050 1.027l-6.963 10.445h6.131c0.552 0 1 0.448 1 1s-0.448 1-1 1z"></path>
<path d="M31.894 30.553l-6-12c-0.169-0.339-0.516-0.553-0.894-0.553s-0.725 0.214-0.895 0.553l-6 12c-0.247 0.494-0.047 1.095 0.447 1.342 0.144 0.072 0.296 0.106 0.447 0.106 0.367 0 0.72-0.203 0.895-0.553l1.724-3.447h6.764l1.724 3.447c0.247 0.494 0.848 0.694 1.342 0.447s0.694-0.848 0.447-1.342zM22.618 26l2.382-4.764 2.382 4.764h-4.764z"></path>
</symbol>
<symbol id="icon-sort-numeric-asc" viewBox="0 0 32 32">
<path d="M10 24v-24h-4v24h-5l7 7 7-7h-5z"></path>
<path d="M27 14c-0.552 0-1-0.448-1-1v-11h-1c-0.552 0-1-0.448-1-1s0.448-1 1-1h2c0.552 0 1 0.448 1 1v12c0 0.552-0.448 1-1 1z"></path>
<path d="M29 18h-6c-0.552 0-1 0.448-1 1v6c0 0.552 0.448 1 1 1h5v4h-5c-0.552 0-1 0.448-1 1s0.448 1 1 1h6c0.552 0 1-0.448 1-1v-12c0-0.552-0.448-1-1-1zM24 20h4v4h-4v-4z"></path>
</symbol>
<symbol id="icon-sort-numberic-desc" viewBox="0 0 32 32">
<path d="M10 24v-24h-4v24h-5l7 7 7-7h-5z"></path>
<path d="M27 32c-0.552 0-1-0.448-1-1v-11h-1c-0.552 0-1-0.448-1-1s0.448-1 1-1h2c0.552 0 1 0.448 1 1v12c0 0.552-0.448 1-1 1z"></path>
<path d="M29 0h-6c-0.552 0-1 0.448-1 1v6c0 0.552 0.448 1 1 1h5v4h-5c-0.552 0-1 0.448-1 1s0.448 1 1 1h6c0.552 0 1-0.448 1-1v-12c0-0.552-0.448-1-1-1zM24 2h4v4h-4v-4z"></path>
</symbol>
<symbol id="icon-sort-amount-asc" viewBox="0 0 32 32">
<path d="M10 24v-24h-4v24h-5l7 7 7-7h-5z"></path>
<path d="M14 18h18v4h-18v-4z"></path>
<path d="M14 12h14v4h-14v-4z"></path>
<path d="M14 6h10v4h-10v-4z"></path>
<path d="M14 0h6v4h-6v-4z"></path>
</symbol>
<symbol id="icon-sort-amount-desc" viewBox="0 0 32 32">
<path d="M10 24v-24h-4v24h-5l7 7 7-7h-5z"></path>
<path d="M14 0h18v4h-18v-4z"></path>
<path d="M14 6h14v4h-14v-4z"></path>
<path d="M14 12h10v4h-10v-4z"></path>
<path d="M14 18h6v4h-6v-4z"></path>
</symbol>
</defs>
</svg>
